<?xml version="1.0" encoding="UTF-8" standalone="no"?>
<!DOCTYPE svg PUBLIC "-//W3C//DTD SVG 1.1//EN"
 "http://www.w3.org/Graphics/SVG/1.1/DTD/svg11.dtd">
<!-- Generated by graphviz version 10.0.1 (20240210.2158)
 -->
<!-- Title: G Pages: 1 -->
<svg width="290pt" height="67pt"
 viewBox="0.00 0.00 290.45 66.95" xmlns="http://www.w3.org/2000/svg" xmlns:xlink="http://www.w3.org/1999/xlink">
<g id="graph0" class="graph" transform="scale(1 1) rotate(0) translate(21.6 45.35)">
<title>G</title>
<polygon fill="#111111" stroke="none" points="-21.6,21.6 -21.6,-45.35 268.85,-45.35 268.85,21.6 -21.6,21.6"/>
<!-- first.ts -->
<g id="node1" class="node">
<title>first.ts</title>
<path fill="none" stroke="#ff6c60" d="M142.33,-23.75C142.33,-23.75 104.17,-23.75 104.17,-23.75 100.21,-23.75 96.25,-19.79 96.25,-15.83 96.25,-15.83 96.25,-7.92 96.25,-7.92 96.25,-3.96 100.21,0 104.17,0 104.17,0 142.33,0 142.33,0 146.29,0 150.25,-3.96 150.25,-7.92 150.25,-7.92 150.25,-15.83 150.25,-15.83 150.25,-19.79 146.29,-23.75 142.33,-23.75"/>
<text text-anchor="middle" x="123.25" y="-6.45" font-family="Arial" font-size="14.00" fill="#ff6c60">first.ts</text>
</g>
<!-- firstA.ts -->
<g id="node2" class="node">
<title>firstA.ts</title>
<path fill="none" stroke="#ff6c60" d="M239.33,-23.75C239.33,-23.75 194.17,-23.75 194.17,-23.75 190.21,-23.75 186.25,-19.79 186.25,-15.83 186.25,-15.83 186.25,-7.92 186.25,-7.92 186.25,-3.96 190.21,0 194.17,0 194.17,0 239.33,0 239.33,0 243.29,0 247.25,-3.96 247.25,-7.92 247.25,-7.92 247.25,-15.83 247.25,-15.83 247.25,-19.79 243.29,-23.75 239.33,-23.75"/>
<text text-anchor="middle" x="216.75" y="-6.45" font-family="Arial" font-size="14.00" fill="#ff6c60">firstA.ts</text>
</g>
<!-- first.ts&#45;&gt;firstA.ts -->
<g id="edge1" class="edge">
<title>first.ts&#45;&gt;firstA.ts</title>
<path fill="none" stroke="#757575" d="M150.72,-5.69C158.09,-5.23 166.29,-5.05 174.3,-5.15"/>
<polygon fill="#757575" stroke="#757575" points="174.19,-8.65 184.29,-5.45 174.4,-1.65 174.19,-8.65"/>
</g>
<!-- firstA.ts&#45;&gt;first.ts -->
<g id="edge2" class="edge">
<title>firstA.ts&#45;&gt;first.ts</title>
<path fill="none" stroke="#757575" d="M185.81,-18.25C178.2,-18.62 169.93,-18.72 161.99,-18.53"/>
<polygon fill="#757575" stroke="#757575" points="162.37,-15.04 152.23,-18.12 162.07,-22.04 162.37,-15.04"/>
</g>
<!-- main.ts -->
<g id="node3" class="node">
<title>main.ts</title>
<path fill="none" stroke="#c6c5fe" d="M52.33,-23.75C52.33,-23.75 7.92,-23.75 7.92,-23.75 3.96,-23.75 0,-19.79 0,-15.83 0,-15.83 0,-7.92 0,-7.92 0,-3.96 3.96,0 7.92,0 7.92,0 52.33,0 52.33,0 56.29,0 60.25,-3.96 60.25,-7.92 60.25,-7.92 60.25,-15.83 60.25,-15.83 60.25,-19.79 56.29,-23.75 52.33,-23.75"/>
<text text-anchor="middle" x="30.12" y="-6.45" font-family="Arial" font-size="14.00" fill="#c6c5fe">main.ts</text>
</g>
<!-- main.ts&#45;&gt;first.ts -->
<g id="edge3" class="edge">
<title>main.ts&#45;&gt;first.ts</title>
<path fill="none" stroke="#757575" d="M60.71,-11.88C68.32,-11.88 76.62,-11.88 84.58,-11.88"/>
<polygon fill="#757575" stroke="#757575" points="84.37,-15.38 94.37,-11.88 84.37,-8.38 84.37,-15.38"/>
</g>
</g>
</svg>
